<svg width="60" height="88" viewBox="0 0 60 88" fill="#F42626" xmlns="http://www.w3.org/2000/svg">
<path d="M2.94583 37.063L2.94609 37.0626L25.7121 3.67248L25.7124 3.67208C26.3162 2.78551 27.014 2.11087 27.7515 1.66256C28.4856 1.21625 29.2481 1 30 1C30.7519 1 31.5144 1.21625 32.2485 1.66256C32.986 2.11087 33.6837 2.78551 34.2876 3.67208L34.2879 3.67248L57.0539 37.0626L57.0542 37.063C57.6584 37.9483 58.1488 39.0166 58.4867 40.2122C58.8244 41.4071 59 42.6949 59 44C59 45.3051 58.8244 46.5929 58.4867 47.7878C58.1488 48.9834 57.6584 50.0517 57.0542 50.937L57.0539 50.9374L34.2879 84.3275L34.2876 84.3279C33.6837 85.2145 32.986 85.8891 32.2485 86.3374C31.5144 86.7838 30.7519 87 30 87C29.2481 87 28.4856 86.7838 27.7515 86.3374C27.014 85.8891 26.3162 85.2145 25.7124 84.3279L25.7121 84.3275L2.94609 50.9374L2.94583 50.937C2.34164 50.0517 1.85117 48.9834 1.51327 47.7878C1.17556 46.5929 1 45.3051 1 44C1 42.6949 1.17556 41.4071 1.51327 40.2122C1.85117 39.0166 2.34164 37.9483 2.94583 37.063Z" stroke="#F42626" stroke-width="2" stroke-linecap="round" stroke-linejoin="round"/>
<path d="M2.94583 37.063L2.94609 37.0626L25.7121 3.67248L25.7124 3.67208C26.3162 2.78551 27.014 2.11087 27.7515 1.66256C28.4856 1.21625 29.2481 1 30 1C30.7519 1 31.5144 1.21625 32.2485 1.66256C32.986 2.11087 33.6837 2.78551 34.2876 3.67208L34.2879 3.67248L57.0539 37.0626L57.0542 37.063C57.6584 37.9483 58.1488 39.0166 58.4867 40.2122C58.8244 41.4071 59 42.6949 59 44C59 45.3051 58.8244 46.5929 58.4867 47.7878C58.1488 48.9834 57.6584 50.0517 57.0542 50.937L57.0539 50.9374L34.2879 84.3275L34.2876 84.3279C33.6837 85.2145 32.986 85.8891 32.2485 86.3374C31.5144 86.7838 30.7519 87 30 87C29.2481 87 28.4856 86.7838 27.7515 86.3374C27.014 85.8891 26.3162 85.2145 25.7124 84.3279L25.7121 84.3275L2.94609 50.9374L2.94583 50.937C2.34164 50.0517 1.85117 48.9834 1.51327 47.7878C1.17556 46.5929 1 45.3051 1 44C1 42.6949 1.17556 41.4071 1.51327 40.2122C1.85117 39.0166 2.34164 37.9483 2.94583 37.063Z" stroke="#F42626" stroke-opacity="0.2" stroke-width="2" stroke-linecap="round" stroke-linejoin="round"/>
</svg>
